<svg width="56" height="56" xmlns="http://www.w3.org/2000/svg"><g fill="none" fill-rule="evenodd"><path d="M21.02 25.516a1.5 1.5 0 11-3 0 1.5 1.5 0 013 0zm-.025 6.986a1.5 1.5 0 11-3-.001 1.5 1.5 0 013 0zm.013-20.993a1.5 1.5 0 11-3 0 1.5 1.5 0 013 0zm-.006 6.99a1.5 1.5 0 11-3 0 1.5 1.5 0 013 0z" fill="#2088FF"/><path d="M27 45v6l-5-2-5 2v-6a2 2 0 012-2h6a2 2 0 012 2z" stroke="#2088FF" stroke-width="2" stroke-linecap="round" stroke-linejoin="round"/><path d="M13 47h-2c-.978 0-2-.982-2-2V7c0-1.018 1.022-2 2-2h34c.978 0 2 .982 2 2v38c0 1.018-1.022 2-2 2H31" stroke="#79B8FF" stroke-width="2" stroke-linecap="round" stroke-linejoin="round"/><path d="M9 41c0-1.215 1.043-2.114 2-2h34c1.085-.114 2-.952 2-2M14.1 6.074v31.868" stroke="#79B8FF" stroke-width="2" stroke-linecap="round" stroke-linejoin="round"/></g></svg>